# xmcd
#
# Track frame offsets:
#	150
#	20272
#	40450
#	54035
#	76890
#	92007
#	113245
#	133912
#	162367
#	182472
#
# Disc length: 2717 seconds
#
# Revision: 4
# Processed by: cddbd v1.5.2PL0 Copyright (c) Steve Scherf et al.
# Submitted via: EasyCDDAExtractor 11.5.3.1
#
DISCID=740a9b0a
DTITLE=Decree - Wake Of Devastation
DYEAR=1997
DGENRE=Industrial
TTITLE0=Delusion
TTITLE1=The Last Day
TTITLE2=Who Dares?
TTITLE3=Fire Of Offering
TTITLE4=Madness Unveiled
TTITLE5=Talons Grasp
TTITLE6=Never Nearer
TTITLE7=Darkness Visible
TTITLE8=Downward
TTITLE9=Bitter End
EXTD=
EXTT0=
EXTT1=
EXTT2=
EXTT3=
EXTT4=
EXTT5=
EXTT6=
EXTT7=
EXTT8=
EXTT9=
PLAYORDER=
